# xmcd
# 
# Track frame offsets:
#     150
#     29530
#     46470
#     81767
#     106547
#     132812
#     144077
#     183045
# 
# Disc length: 2866
# 
# Revision: 0
# Processed by: cddbd v1.5.2PL0 Copyright (c) Steve Scherf et al.
# Submitted via: BonkEnc v1.0.8
# 
DISCID=580b3008
DTITLE=Eliane Elias - Fantasia
DYEAR=1992
DGENRE=Contemporary Jazz
TTITLE0=The Girl From Ipanema
TTITLE1=Wave
TTITLE2=Milton Nascimento Medley
TTITLE3=Sabe Voce (Do You Know)
TTITLE4=Bahia (Na Baixa Do Sapateiro)
TTITLE5=Fantasia (To Amanda)
TTITLE6=No More Blues  (Chega de Saudade)
TTITLE7=Ivan Lins Medley
EXTD=Eliane Elias\nFantasia\n\n1. The Girl From Ipanema (Gartta De Ipanema]\n2. Wave\n3. Milton Nascimento Medley\n     Ponta de Areia\n     Cangco do Sal (Salt Song]\n     Cravo e Canela (Clove and Cinnamon]\n4. Sabe Voce (Do You Know]\n5. Bahia (Na Baix
EXTD=a Do Sapateiro]\n6. Fantasia (To Amanda]\n7. No More Blues  (Chega de Saudade]\n8. Ivan Lins Medley\n    Coragem Mulher\n    Choro das Aguas\n    Doce Presenga\n    Coragem Mulher\n\nEliane Elias, piano and vocals\nEddie Gomez, bass            Marc Joh
EXTD=nson, bass\nJack DeJohnette, drums     Peter Erskine, drums\nNana Vasconcelos, percussion\n\nSpecial guest: Ivan Lins, vocals\nIntroducing: Amanda Elias Brecker, vocals\n\nProduced and arranged by Eliane Elias\n\nCopyright Somethin' Else Records, \n 
EXTD=a division of Toshiba-EMI Ltd.\n  under exclusive license to Blue Note Records
EXTT0=(Gartta De Ipanema)
EXTT1=
EXTT2=Ponta de Areia\nCangco do Sal (Salt Song]\nCravo e Canela (Clove and Cinnamon)
EXTT3=
EXTT4=
EXTT5=
EXTT6=
EXTT7=Coragem Mulher\nChoro das Aguas\nDoce Presenga\nCoragem Mulher
PLAYORDER=
